<svg xmlns="http://www.w3.org/2000/svg" xmlns:xlink="http://www.w3.org/1999/xlink" width="6912" zoomAndPan="magnify" viewBox="0 0 5184 2592.000001" height="3456" preserveAspectRatio="xMidYMid meet" version="1.0"><defs><g/><clipPath id="d2754e5aee"><rect x="0" width="4515" y="0" height="1226"/></clipPath></defs><g transform="matrix(1, 0, 0, 1, 333, 664)"><g clip-path="url(#d2754e5aee)"><g fill="#de6e27" fill-opacity="1"><g transform="translate(10.522709, 805.950797)"><g><path d="M 237 -247.15625 C 243.207031 -233.050781 249.695312 -218.519531 256.46875 -203.5625 C 263.238281 -188.613281 270.007812 -173.519531 276.78125 -158.28125 L 324.1875 -55.859375 L 291.171875 1.6875 L 206.53125 1.6875 C 175.5 -70.539062 149.257812 -130.632812 127.8125 -178.59375 C 116.53125 -202.300781 105.242188 -226.988281 93.953125 -252.65625 C 82.671875 -278.332031 70.820312 -304.710938 58.40625 -331.796875 C 55.582031 -338.003906 51.910156 -343.082031 47.390625 -347.03125 C 42.878906 -350.988281 37.804688 -354.941406 32.171875 -358.890625 C 20.316406 -366.222656 8.179688 -370.738281 -4.234375 -372.4375 L -4.234375 -402.0625 L 242.921875 -402.0625 L 242.921875 -372.4375 C 233.898438 -371.875 223.179688 -369.613281 210.765625 -365.65625 C 198.347656 -362.269531 192.140625 -357.472656 192.140625 -351.265625 C 192.140625 -349.578125 192.703125 -347.320312 193.828125 -344.5 C 194.398438 -342.800781 195.109375 -341.53125 195.953125 -340.6875 C 196.796875 -339.84375 197.5 -338.289062 198.0625 -336.03125 C 206.53125 -315.15625 219.507812 -285.53125 237 -247.15625 Z M 454.53125 -391.90625 C 466.945312 -380.050781 474.140625 -365.941406 476.109375 -349.578125 C 478.085938 -333.210938 474.847656 -318.257812 466.390625 -304.71875 L 341.953125 -88.03125 L 335.1875 -88.03125 L 328.421875 -104.109375 C 328.421875 -104.109375 330.957031 -109.1875 336.03125 -119.34375 C 341.113281 -129.5 346.757812 -142.476562 352.96875 -158.28125 C 359.175781 -174.082031 364.535156 -190.726562 369.046875 -208.21875 C 373.554688 -225.71875 375.53125 -241.941406 374.96875 -256.890625 C 374.40625 -271.847656 369.609375 -283.273438 360.578125 -291.171875 C 346.472656 -304.148438 339.140625 -320.234375 338.578125 -339.421875 C 338.015625 -358.609375 344.222656 -374.972656 357.203125 -388.515625 C 370.179688 -402.617188 386.257812 -409.953125 405.4375 -410.515625 C 424.625 -411.085938 440.988281 -404.882812 454.53125 -391.90625 Z M 454.53125 -391.90625 "/></g></g></g><g fill="#de6e27" fill-opacity="1"><g transform="translate(469.261878, 805.950797)"><g><path d="M 441.84375 -43.171875 C 452 -43.171875 461.023438 -43.171875 468.921875 -43.171875 L 468.921875 -13.546875 C 457.078125 -7.898438 442.972656 -3.101562 426.609375 0.84375 C 410.242188 5.363281 393.03125 7.625 374.96875 7.625 C 341.675781 7.625 317.128906 2.539062 301.328125 -7.625 C 286.097656 -17.207031 275.378906 -31.3125 269.171875 -49.9375 L 267.46875 -275.09375 L 267.46875 -417.296875 C 270.851562 -416.734375 274.238281 -416.304688 277.625 -416.015625 C 281.007812 -415.734375 284.113281 -415.3125 286.9375 -414.75 C 308.945312 -411.925781 328.695312 -405.4375 346.1875 -395.28125 C 363.125 -386.257812 376.671875 -372.71875 386.828125 -354.65625 C 396.421875 -336.601562 401.21875 -312.90625 401.21875 -283.5625 C 401.21875 -253.082031 400.648438 -216.96875 399.515625 -175.21875 C 398.390625 -132.894531 397.828125 -105.242188 397.828125 -92.265625 C 397.828125 -79.847656 399.519531 -70.253906 402.90625 -63.484375 C 406.851562 -56.148438 412.492188 -50.789062 419.828125 -47.40625 C 424.347656 -45.144531 431.6875 -43.734375 441.84375 -43.171875 Z M 192.140625 -236.15625 C 209.066406 -241.238281 224.019531 -246.035156 237 -250.546875 L 245.46875 -245.46875 L 245.46875 -216.6875 C 237 -213.300781 229.097656 -210.195312 221.765625 -207.375 C 207.097656 -200.601562 194.96875 -193.550781 185.375 -186.21875 C 175.21875 -178.3125 167.316406 -168.71875 161.671875 -157.4375 C 156.023438 -145.582031 153.203125 -131.472656 153.203125 -115.109375 C 153.203125 -94.234375 158 -79 167.59375 -69.40625 C 177.1875 -59.8125 189.035156 -55.015625 203.140625 -55.015625 C 217.816406 -55.015625 229.953125 -58.117188 239.546875 -64.328125 L 245.46875 -60.9375 L 245.46875 -30.46875 C 244.90625 -29.90625 244.195312 -29.203125 243.34375 -28.359375 C 242.5 -27.515625 241.515625 -26.804688 240.390625 -26.234375 C 231.921875 -19.460938 222.890625 -13.820312 213.296875 -9.3125 C 200.316406 -3.664062 187.90625 0.847656 176.0625 4.234375 C 164.207031 7.054688 147.84375 8.46875 126.96875 8.46875 C 95.363281 8.46875 68.273438 -0.84375 45.703125 -19.46875 C 23.703125 -38.09375 12.703125 -62.640625 12.703125 -93.109375 C 12.703125 -111.160156 15.238281 -126.113281 20.3125 -137.96875 C 24.832031 -150.382812 31.601562 -161.390625 40.625 -170.984375 C 49.09375 -179.441406 58.6875 -186.773438 69.40625 -192.984375 C 80.125 -198.628906 91.691406 -203.707031 104.109375 -208.21875 C 128.378906 -217.25 157.722656 -226.5625 192.140625 -236.15625 Z M 104.953125 -250.546875 C 86.335938 -250.546875 70.253906 -257.316406 56.703125 -270.859375 C 43.160156 -284.398438 36.390625 -300.484375 36.390625 -319.109375 C 36.390625 -330.953125 38.925781 -341.671875 44 -351.265625 C 49.082031 -360.859375 55.859375 -368.757812 64.328125 -374.96875 C 64.328125 -374.96875 70.109375 -378.492188 81.671875 -385.546875 C 93.242188 -392.597656 111.582031 -399.648438 136.6875 -406.703125 C 161.800781 -413.765625 194.394531 -417.296875 234.46875 -417.296875 L 243.78125 -413.0625 L 243.78125 -398.671875 C 243.78125 -398.671875 240.25 -397.539062 233.1875 -395.28125 C 226.132812 -393.03125 218.09375 -389.082031 209.0625 -383.4375 C 200.039062 -377.789062 192 -369.890625 184.9375 -359.734375 C 177.882812 -349.578125 174.359375 -336.878906 174.359375 -321.640625 C 174.359375 -321.078125 174.359375 -320.65625 174.359375 -320.375 C 174.359375 -320.09375 174.359375 -319.671875 174.359375 -319.109375 C 174.359375 -300.484375 167.585938 -284.398438 154.046875 -270.859375 C 140.503906 -257.316406 124.140625 -250.546875 104.953125 -250.546875 Z M 104.953125 -250.546875 "/></g></g></g><g fill="#de6e27" fill-opacity="1"><g transform="translate(916.151632, 805.950797)"><g><path d="M 221.765625 -39.78125 C 226.273438 -37.519531 231.070312 -35.265625 236.15625 -33.015625 C 241.800781 -31.316406 247.726562 -29.90625 253.9375 -28.78125 L 253.9375 0.84375 L 11 0.84375 L 11 -28.78125 C 18.332031 -29.90625 25.101562 -30.75 31.3125 -31.3125 C 38.082031 -31.882812 44.007812 -33.296875 49.09375 -35.546875 C 57.5625 -38.367188 63.488281 -42.882812 66.875 -49.09375 C 70.257812 -55.300781 71.953125 -63.484375 71.953125 -73.640625 L 71.953125 -309.796875 C 71.953125 -318.828125 69.691406 -327.289062 65.171875 -335.1875 C 60.097656 -343.65625 54.457031 -350.144531 48.25 -354.65625 C 43.164062 -358.039062 36.957031 -360.863281 29.625 -363.125 C 22.289062 -365.375 14.109375 -366.785156 5.078125 -367.359375 L 5.078125 -396.984375 L 198.90625 -407.984375 L 204.84375 -401.21875 L 204.84375 -77.875 C 204.84375 -68.28125 206.25 -60.378906 209.0625 -54.171875 C 211.320312 -47.960938 215.554688 -43.164062 221.765625 -39.78125 Z M 524.796875 -33.015625 C 531.566406 -31.316406 539.179688 -29.90625 547.640625 -28.78125 L 547.640625 0.84375 L 305.5625 0.84375 L 305.5625 -28.78125 C 311.769531 -29.90625 317.976562 -30.75 324.1875 -31.3125 C 330.957031 -31.882812 336.316406 -33.296875 340.265625 -35.546875 C 346.472656 -37.804688 350.425781 -42.320312 352.125 -49.09375 C 353.8125 -55.300781 354.65625 -63.484375 354.65625 -73.640625 L 354.65625 -263.234375 C 354.65625 -291.453125 349.578125 -312.332031 339.421875 -325.875 C 329.265625 -339.988281 315.15625 -347.046875 297.09375 -347.046875 C 285.25 -347.046875 274.8125 -345.347656 265.78125 -341.953125 C 257.3125 -338.566406 249.410156 -334.335938 242.078125 -329.265625 L 236.15625 -331.796875 L 236.15625 -365.65625 C 248.007812 -375.8125 258.445312 -383.710938 267.46875 -389.359375 C 278.195312 -396.128906 291.742188 -402.054688 308.109375 -407.140625 C 324.472656 -411.648438 341.960938 -413.90625 360.578125 -413.90625 C 401.773438 -413.90625 433.378906 -401.773438 455.390625 -377.515625 C 477.390625 -353.242188 488.390625 -319.101562 488.390625 -275.09375 L 488.390625 -77.03125 C 488.390625 -66.875 489.800781 -58.972656 492.625 -53.328125 C 496.007812 -47.117188 501.367188 -42.320312 508.703125 -38.9375 C 513.222656 -37.238281 518.585938 -35.265625 524.796875 -33.015625 Z M 524.796875 -33.015625 "/></g></g></g><g fill="#de6e27" fill-opacity="1"><g transform="translate(1443.447975, 805.950797)"><g><path d="M 413.90625 -122.734375 L 444.375 -100.71875 C 434.78125 -85.488281 423.210938 -70.820312 409.671875 -56.71875 C 396.691406 -43.164062 381.457031 -31.59375 363.96875 -22 C 345.90625 -11.84375 327.566406 -3.945312 308.953125 1.6875 C 290.328125 6.769531 269.164062 9.3125 245.46875 9.3125 C 205.40625 9.3125 170.703125 3.664062 141.359375 -7.625 C 112.015625 -18.90625 88.03125 -34.140625 69.40625 -53.328125 C 50.21875 -72.515625 36.113281 -95.367188 27.09375 -121.890625 C 17.5 -147.847656 12.703125 -176.0625 12.703125 -206.53125 C 12.703125 -234.175781 17.78125 -260.695312 27.9375 -286.09375 C 38.09375 -311.488281 52.476562 -334.0625 71.09375 -353.8125 C 89.71875 -373 113.140625 -388.515625 141.359375 -400.359375 C 169.003906 -412.773438 200.320312 -418.984375 235.3125 -418.984375 C 237 -418.984375 238.972656 -418.84375 241.234375 -418.5625 C 243.492188 -418.28125 245.46875 -418.140625 247.15625 -418.140625 L 247.15625 -412.21875 C 226.84375 -404.882812 211.179688 -395.148438 200.171875 -383.015625 C 189.171875 -370.878906 181.414062 -359.875 176.90625 -350 C 172.394531 -340.125 170.140625 -335.1875 170.140625 -335.1875 C 163.367188 -314.875 159.414062 -287.789062 158.28125 -253.9375 L 158.28125 -219.234375 C 158.28125 -163.929688 169.003906 -121.609375 190.453125 -92.265625 C 211.890625 -63.484375 246.03125 -49.09375 292.875 -49.09375 C 318.257812 -49.09375 341.109375 -56.144531 361.421875 -70.25 C 381.742188 -84.363281 399.238281 -101.859375 413.90625 -122.734375 Z M 278.484375 -347.046875 C 273.960938 -358.890625 268.035156 -367.914062 260.703125 -374.125 L 260.703125 -381.75 C 270.859375 -391.332031 281.859375 -398.378906 293.703125 -402.890625 C 305.554688 -407.410156 311.765625 -409.671875 312.328125 -409.671875 C 315.148438 -409.109375 317.972656 -408.40625 320.796875 -407.5625 C 323.617188 -406.71875 326.160156 -405.726562 328.421875 -404.59375 C 352.679688 -395.5625 372.992188 -382.863281 389.359375 -366.5 C 404.597656 -351.269531 415.882812 -333.210938 423.21875 -312.328125 C 429.988281 -290.890625 433.375 -268.882812 433.375 -246.3125 L 433.375 -219.234375 L 192.984375 -219.234375 L 192.984375 -253.9375 L 289.484375 -255.625 C 289.484375 -271.425781 288.632812 -288.070312 286.9375 -305.5625 C 285.25 -322.488281 282.429688 -336.316406 278.484375 -347.046875 Z M 278.484375 -347.046875 "/></g></g></g><g fill="#de6e27" fill-opacity="1"><g transform="translate(1877.641995, 805.950797)"><g><path d="M 100.71875 -141.359375 C 121.601562 -141.359375 139.238281 -134.019531 153.625 -119.34375 C 168.019531 -104.675781 175.21875 -87.1875 175.21875 -66.875 C 175.21875 -45.988281 168.019531 -28.347656 153.625 -13.953125 C 139.238281 0.429688 121.601562 7.625 100.71875 7.625 C 80.40625 7.625 62.910156 0.429688 48.234375 -13.953125 C 33.566406 -28.347656 26.234375 -45.988281 26.234375 -66.875 C 26.234375 -87.1875 33.566406 -104.675781 48.234375 -119.34375 C 62.910156 -134.019531 80.40625 -141.359375 100.71875 -141.359375 Z M 293.71875 -267.46875 C 274.53125 -267.46875 258.304688 -274.238281 245.046875 -287.78125 C 231.785156 -301.332031 225.15625 -317.695312 225.15625 -336.875 C 225.15625 -356.0625 231.785156 -372.285156 245.046875 -385.546875 C 258.304688 -398.804688 274.53125 -405.4375 293.71875 -405.4375 C 312.90625 -405.4375 329.269531 -398.804688 342.8125 -385.546875 C 356.351562 -372.285156 363.125 -356.0625 363.125 -336.875 C 363.125 -317.695312 356.351562 -301.332031 342.8125 -287.78125 C 329.269531 -274.238281 312.90625 -267.46875 293.71875 -267.46875 Z M 343.65625 -210.765625 C 366.226562 -189.316406 377.515625 -161.945312 377.515625 -128.65625 C 377.515625 -84.082031 360.019531 -49.660156 325.03125 -25.390625 C 290.039062 -1.128906 244.613281 11 188.75 11 C 184.238281 11 179.863281 10.859375 175.625 10.578125 C 171.394531 10.296875 167.304688 10.15625 163.359375 10.15625 L 163.359375 5.921875 C 189.316406 -3.109375 208.503906 -12.414062 220.921875 -22 C 233.335938 -31.59375 241.800781 -39.210938 246.3125 -44.859375 C 245.75 -44.859375 245.75 -45.140625 246.3125 -45.703125 C 248.007812 -47.960938 249.140625 -49.796875 249.703125 -51.203125 C 250.265625 -52.617188 250.546875 -53.328125 250.546875 -53.328125 C 254.492188 -61.785156 256.46875 -71.378906 256.46875 -82.109375 C 256.46875 -92.828125 253.644531 -101.570312 248 -108.34375 C 242.925781 -115.675781 235.59375 -121.882812 226 -126.96875 C 215.28125 -132.039062 203.710938 -136.554688 191.296875 -140.515625 C 177.753906 -144.460938 162.234375 -149.253906 144.734375 -154.890625 C 126.117188 -159.972656 110.320312 -165.335938 97.34375 -170.984375 C 84.363281 -176.617188 70.820312 -185.363281 56.71875 -197.21875 C 44.300781 -207.9375 34.425781 -220.632812 27.09375 -235.3125 C 19.75 -249.976562 16.078125 -267.753906 16.078125 -288.640625 C 16.078125 -327.003906 32.160156 -358.039062 64.328125 -381.75 C 96.492188 -404.882812 138.535156 -416.453125 190.453125 -416.453125 C 198.347656 -416.453125 205.960938 -416.164062 213.296875 -415.59375 C 220.640625 -415.03125 227.695312 -414.1875 234.46875 -413.0625 L 234.46875 -407.984375 C 213.019531 -404.035156 195.945312 -398.25 183.25 -390.625 C 170.550781 -383.007812 161.378906 -376.097656 155.734375 -369.890625 C 150.097656 -363.679688 147.28125 -360.578125 147.28125 -360.578125 C 141.070312 -352.679688 137.96875 -343.375 137.96875 -332.65625 C 137.96875 -311.769531 146.710938 -296.8125 164.203125 -287.78125 C 181.703125 -278.757812 206.25 -270.015625 237.84375 -261.546875 C 285.8125 -249.128906 321.082031 -232.203125 343.65625 -210.765625 Z M 343.65625 -210.765625 "/></g></g></g><g fill="#de6e27" fill-opacity="1"><g transform="translate(2249.203546, 805.950797)"><g><path d="M 100.71875 -141.359375 C 121.601562 -141.359375 139.238281 -134.019531 153.625 -119.34375 C 168.019531 -104.675781 175.21875 -87.1875 175.21875 -66.875 C 175.21875 -45.988281 168.019531 -28.347656 153.625 -13.953125 C 139.238281 0.429688 121.601562 7.625 100.71875 7.625 C 80.40625 7.625 62.910156 0.429688 48.234375 -13.953125 C 33.566406 -28.347656 26.234375 -45.988281 26.234375 -66.875 C 26.234375 -87.1875 33.566406 -104.675781 48.234375 -119.34375 C 62.910156 -134.019531 80.40625 -141.359375 100.71875 -141.359375 Z M 293.71875 -267.46875 C 274.53125 -267.46875 258.304688 -274.238281 245.046875 -287.78125 C 231.785156 -301.332031 225.15625 -317.695312 225.15625 -336.875 C 225.15625 -356.0625 231.785156 -372.285156 245.046875 -385.546875 C 258.304688 -398.804688 274.53125 -405.4375 293.71875 -405.4375 C 312.90625 -405.4375 329.269531 -398.804688 342.8125 -385.546875 C 356.351562 -372.285156 363.125 -356.0625 363.125 -336.875 C 363.125 -317.695312 356.351562 -301.332031 342.8125 -287.78125 C 329.269531 -274.238281 312.90625 -267.46875 293.71875 -267.46875 Z M 343.65625 -210.765625 C 366.226562 -189.316406 377.515625 -161.945312 377.515625 -128.65625 C 377.515625 -84.082031 360.019531 -49.660156 325.03125 -25.390625 C 290.039062 -1.128906 244.613281 11 188.75 11 C 184.238281 11 179.863281 10.859375 175.625 10.578125 C 171.394531 10.296875 167.304688 10.15625 163.359375 10.15625 L 163.359375 5.921875 C 189.316406 -3.109375 208.503906 -12.414062 220.921875 -22 C 233.335938 -31.59375 241.800781 -39.210938 246.3125 -44.859375 C 245.75 -44.859375 245.75 -45.140625 246.3125 -45.703125 C 248.007812 -47.960938 249.140625 -49.796875 249.703125 -51.203125 C 250.265625 -52.617188 250.546875 -53.328125 250.546875 -53.328125 C 254.492188 -61.785156 256.46875 -71.378906 256.46875 -82.109375 C 256.46875 -92.828125 253.644531 -101.570312 248 -108.34375 C 242.925781 -115.675781 235.59375 -121.882812 226 -126.96875 C 215.28125 -132.039062 203.710938 -136.554688 191.296875 -140.515625 C 177.753906 -144.460938 162.234375 -149.253906 144.734375 -154.890625 C 126.117188 -159.972656 110.320312 -165.335938 97.34375 -170.984375 C 84.363281 -176.617188 70.820312 -185.363281 56.71875 -197.21875 C 44.300781 -207.9375 34.425781 -220.632812 27.09375 -235.3125 C 19.75 -249.976562 16.078125 -267.753906 16.078125 -288.640625 C 16.078125 -327.003906 32.160156 -358.039062 64.328125 -381.75 C 96.492188 -404.882812 138.535156 -416.453125 190.453125 -416.453125 C 198.347656 -416.453125 205.960938 -416.164062 213.296875 -415.59375 C 220.640625 -415.03125 227.695312 -414.1875 234.46875 -413.0625 L 234.46875 -407.984375 C 213.019531 -404.035156 195.945312 -398.25 183.25 -390.625 C 170.550781 -383.007812 161.378906 -376.097656 155.734375 -369.890625 C 150.097656 -363.679688 147.28125 -360.578125 147.28125 -360.578125 C 141.070312 -352.679688 137.96875 -343.375 137.96875 -332.65625 C 137.96875 -311.769531 146.710938 -296.8125 164.203125 -287.78125 C 181.703125 -278.757812 206.25 -270.015625 237.84375 -261.546875 C 285.8125 -249.128906 321.082031 -232.203125 343.65625 -210.765625 Z M 343.65625 -210.765625 "/></g></g></g><g fill="#de6e27" fill-opacity="1"><g transform="translate(2620.764981, 805.950797)"><g><path d="M 441.84375 -43.171875 C 452 -43.171875 461.023438 -43.171875 468.921875 -43.171875 L 468.921875 -13.546875 C 457.078125 -7.898438 442.972656 -3.101562 426.609375 0.84375 C 410.242188 5.363281 393.03125 7.625 374.96875 7.625 C 341.675781 7.625 317.128906 2.539062 301.328125 -7.625 C 286.097656 -17.207031 275.378906 -31.3125 269.171875 -49.9375 L 267.46875 -275.09375 L 267.46875 -417.296875 C 270.851562 -416.734375 274.238281 -416.304688 277.625 -416.015625 C 281.007812 -415.734375 284.113281 -415.3125 286.9375 -414.75 C 308.945312 -411.925781 328.695312 -405.4375 346.1875 -395.28125 C 363.125 -386.257812 376.671875 -372.71875 386.828125 -354.65625 C 396.421875 -336.601562 401.21875 -312.90625 401.21875 -283.5625 C 401.21875 -253.082031 400.648438 -216.96875 399.515625 -175.21875 C 398.390625 -132.894531 397.828125 -105.242188 397.828125 -92.265625 C 397.828125 -79.847656 399.519531 -70.253906 402.90625 -63.484375 C 406.851562 -56.148438 412.492188 -50.789062 419.828125 -47.40625 C 424.347656 -45.144531 431.6875 -43.734375 441.84375 -43.171875 Z M 192.140625 -236.15625 C 209.066406 -241.238281 224.019531 -246.035156 237 -250.546875 L 245.46875 -245.46875 L 245.46875 -216.6875 C 237 -213.300781 229.097656 -210.195312 221.765625 -207.375 C 207.097656 -200.601562 194.96875 -193.550781 185.375 -186.21875 C 175.21875 -178.3125 167.316406 -168.71875 161.671875 -157.4375 C 156.023438 -145.582031 153.203125 -131.472656 153.203125 -115.109375 C 153.203125 -94.234375 158 -79 167.59375 -69.40625 C 177.1875 -59.8125 189.035156 -55.015625 203.140625 -55.015625 C 217.816406 -55.015625 229.953125 -58.117188 239.546875 -64.328125 L 245.46875 -60.9375 L 245.46875 -30.46875 C 244.90625 -29.90625 244.195312 -29.203125 243.34375 -28.359375 C 242.5 -27.515625 241.515625 -26.804688 240.390625 -26.234375 C 231.921875 -19.460938 222.890625 -13.820312 213.296875 -9.3125 C 200.316406 -3.664062 187.90625 0.847656 176.0625 4.234375 C 164.207031 7.054688 147.84375 8.46875 126.96875 8.46875 C 95.363281 8.46875 68.273438 -0.84375 45.703125 -19.46875 C 23.703125 -38.09375 12.703125 -62.640625 12.703125 -93.109375 C 12.703125 -111.160156 15.238281 -126.113281 20.3125 -137.96875 C 24.832031 -150.382812 31.601562 -161.390625 40.625 -170.984375 C 49.09375 -179.441406 58.6875 -186.773438 69.40625 -192.984375 C 80.125 -198.628906 91.691406 -203.707031 104.109375 -208.21875 C 128.378906 -217.25 157.722656 -226.5625 192.140625 -236.15625 Z M 104.953125 -250.546875 C 86.335938 -250.546875 70.253906 -257.316406 56.703125 -270.859375 C 43.160156 -284.398438 36.390625 -300.484375 36.390625 -319.109375 C 36.390625 -330.953125 38.925781 -341.671875 44 -351.265625 C 49.082031 -360.859375 55.859375 -368.757812 64.328125 -374.96875 C 64.328125 -374.96875 70.109375 -378.492188 81.671875 -385.546875 C 93.242188 -392.597656 111.582031 -399.648438 136.6875 -406.703125 C 161.800781 -413.765625 194.394531 -417.296875 234.46875 -417.296875 L 243.78125 -413.0625 L 243.78125 -398.671875 C 243.78125 -398.671875 240.25 -397.539062 233.1875 -395.28125 C 226.132812 -393.03125 218.09375 -389.082031 209.0625 -383.4375 C 200.039062 -377.789062 192 -369.890625 184.9375 -359.734375 C 177.882812 -349.578125 174.359375 -336.878906 174.359375 -321.640625 C 174.359375 -321.078125 174.359375 -320.65625 174.359375 -320.375 C 174.359375 -320.09375 174.359375 -319.671875 174.359375 -319.109375 C 174.359375 -300.484375 167.585938 -284.398438 154.046875 -270.859375 C 140.503906 -257.316406 124.140625 -250.546875 104.953125 -250.546875 Z M 104.953125 -250.546875 "/></g></g></g><g fill="#de6e27" fill-opacity="1"><g transform="translate(3067.654852, 805.950797)"><g/></g></g><g fill="#de6e27" fill-opacity="1"><g transform="translate(3312.25871, 805.950797)"><g><path d="M 394.4375 -126.96875 L 424.90625 -106.65625 C 416.445312 -89.726562 406.289062 -74.488281 394.4375 -60.9375 C 383.15625 -47.394531 369.332031 -35.265625 352.96875 -24.546875 C 336.039062 -13.265625 318.546875 -4.800781 300.484375 0.84375 C 282.992188 6.488281 262.679688 9.3125 239.546875 9.3125 C 201.734375 9.3125 168.4375 3.664062 139.65625 -7.625 C 110.882812 -18.34375 87.1875 -33.296875 68.5625 -52.484375 C 49.9375 -71.671875 35.828125 -94.238281 26.234375 -120.1875 C 17.210938 -146.71875 12.703125 -175.5 12.703125 -206.53125 C 12.703125 -234.75 18.34375 -261.550781 29.625 -286.9375 C 40.90625 -312.332031 56.140625 -334.625 75.328125 -353.8125 C 95.078125 -373.5625 119.625 -389.363281 148.96875 -401.21875 C 176.0625 -411.9375 205.972656 -417.578125 238.703125 -418.140625 L 239.546875 -412.21875 C 233.898438 -407.132812 226.421875 -399.515625 217.109375 -389.359375 C 207.796875 -379.203125 198.90625 -367.632812 190.4375 -354.65625 C 181.976562 -341.675781 176.335938 -328.414062 173.515625 -314.875 C 171.265625 -307.539062 169.289062 -300.207031 167.59375 -292.875 C 162.519531 -270.300781 159.984375 -242.929688 159.984375 -210.765625 C 159.984375 -162.796875 171.265625 -124.140625 193.828125 -94.796875 C 216.960938 -64.890625 244.050781 -49.9375 275.09375 -49.9375 C 305.5625 -49.9375 329.546875 -56.707031 347.046875 -70.25 C 364.535156 -83.789062 380.332031 -102.695312 394.4375 -126.96875 Z M 269.171875 -319.953125 C 271.421875 -332.929688 271.984375 -344.21875 270.859375 -353.8125 C 269.734375 -363.40625 268.320312 -371.023438 266.625 -376.671875 L 267.46875 -376.671875 L 269.171875 -389.359375 L 296.25 -414.75 C 321.644531 -411.363281 341.675781 -405.15625 356.34375 -396.125 C 371.019531 -387.101562 381.316406 -378.5 387.234375 -370.3125 C 393.160156 -362.132812 396.125 -358.046875 396.125 -358.046875 C 404.03125 -346.753906 407.984375 -334.054688 407.984375 -319.953125 C 407.984375 -300.765625 401.210938 -284.398438 387.671875 -270.859375 C 374.128906 -257.316406 357.765625 -250.546875 338.578125 -250.546875 C 319.390625 -250.546875 303.023438 -257.316406 289.484375 -270.859375 C 275.941406 -284.398438 269.171875 -300.765625 269.171875 -319.953125 Z M 269.171875 -319.953125 "/></g></g></g><g fill="#de6e27" fill-opacity="1"><g transform="translate(3723.600337, 805.950797)"><g><path d="M 250.546875 -32.171875 L 249.703125 -32.171875 C 256.472656 -29.910156 263.523438 -28.5 270.859375 -27.9375 L 270.859375 1.6875 L 13.546875 1.6875 L 13.546875 -27.9375 C 20.878906 -28.5 27.648438 -29.0625 33.859375 -29.625 C 40.628906 -30.75 46.550781 -32.160156 51.625 -33.859375 C 60.65625 -37.242188 66.863281 -42.039062 70.25 -48.25 C 73.632812 -53.894531 75.328125 -61.796875 75.328125 -71.953125 L 75.328125 -308.953125 C 75.328125 -318.546875 73.070312 -326.726562 68.5625 -333.5 C 64.613281 -340.832031 59.253906 -346.753906 52.484375 -351.265625 C 47.398438 -354.085938 40.0625 -357.191406 30.46875 -360.578125 C 20.3125 -363.398438 11.285156 -365.09375 3.390625 -365.65625 L 3.390625 -396.125 L 202.296875 -406.296875 L 209.0625 -400.359375 L 209.0625 -77.03125 C 209.0625 -68 211.039062 -60.097656 215 -53.328125 C 218.945312 -46.554688 224.585938 -41.476562 231.921875 -38.09375 C 237.566406 -35.832031 243.773438 -33.859375 250.546875 -32.171875 Z M 131.203125 -478.234375 C 110.316406 -478.234375 92.535156 -485.566406 77.859375 -500.234375 C 63.191406 -514.910156 55.859375 -532.40625 55.859375 -552.71875 C 55.859375 -573.601562 63.191406 -591.238281 77.859375 -605.625 C 92.535156 -620.007812 110.316406 -627.203125 131.203125 -627.203125 C 151.515625 -627.203125 169.003906 -620.007812 183.671875 -605.625 C 198.347656 -591.238281 205.6875 -573.601562 205.6875 -552.71875 C 205.6875 -532.40625 198.347656 -514.910156 183.671875 -500.234375 C 169.003906 -485.566406 151.515625 -478.234375 131.203125 -478.234375 Z M 131.203125 -478.234375 "/></g></g></g><g fill="#de6e27" fill-opacity="1"><g transform="translate(3974.128783, 805.950797)"><g><path d="M 506.171875 -39.78125 C 517.453125 -38.09375 526.476562 -37.25 533.25 -37.25 L 533.25 -7.625 L 332.65625 4.234375 L 325.875 -2.546875 L 325.875 -300.484375 L 326.71875 -465.546875 L 325.875 -465.546875 L 325.875 -520.5625 C 325.875 -530.71875 323.898438 -540.023438 319.953125 -548.484375 C 316.003906 -557.515625 310.644531 -564.570312 303.875 -569.65625 C 295.40625 -575.289062 284.960938 -579.519531 272.546875 -582.34375 C 259.566406 -584.601562 246.875 -586.296875 234.46875 -587.421875 L 234.46875 -617.046875 L 454.53125 -628.0625 L 460.46875 -621.28125 L 460.46875 -88.875 C 460.46875 -78.15625 462.160156 -69.410156 465.546875 -62.640625 C 468.929688 -55.296875 474.289062 -49.648438 481.625 -45.703125 C 487.269531 -42.878906 495.453125 -40.90625 506.171875 -39.78125 Z M 254.78125 -44.859375 C 271.144531 -44.859375 284.6875 -47.960938 295.40625 -54.171875 L 302.171875 -49.9375 L 302.171875 -20.3125 C 292.578125 -13.539062 281.859375 -7.332031 270.015625 -1.6875 C 247.441406 9.03125 224.867188 14.390625 202.296875 14.390625 C 147.554688 14.390625 102.414062 -5.921875 66.875 -46.546875 C 31.320312 -87.179688 13.546875 -139.945312 13.546875 -204.84375 C 13.546875 -261.832031 33.296875 -310.640625 72.796875 -351.265625 C 112.296875 -392.460938 160.257812 -413.0625 216.6875 -413.0625 C 239.257812 -413.0625 260.140625 -410.519531 279.328125 -405.4375 C 286.660156 -403.75 293.992188 -401.492188 301.328125 -398.671875 L 301.328125 -363.96875 L 293.71875 -359.734375 C 289.757812 -362.554688 286.085938 -364.8125 282.703125 -366.5 C 273.679688 -371.019531 263.523438 -373.28125 252.234375 -373.28125 C 225.148438 -373.28125 202.863281 -358.046875 185.375 -327.578125 C 167.875 -296.535156 159.125 -253.082031 159.125 -197.21875 C 159.125 -175.207031 160.816406 -155.457031 164.203125 -137.96875 C 167.023438 -121.039062 172.390625 -105.238281 180.296875 -90.5625 C 188.191406 -76.457031 198.347656 -65.175781 210.765625 -56.71875 C 223.179688 -48.8125 237.851562 -44.859375 254.78125 -44.859375 Z M 254.78125 -44.859375 "/></g></g></g><g fill="#5b5a5d" fill-opacity="1"><g transform="translate(733.908997, 1151.578517)"><g><path d="M 159.90625 -141.140625 L 159.90625 0 L 141.34375 0 L 141.34375 -105.25 L 94.4375 0 L 81.390625 0 L 34.265625 -105.453125 L 34.265625 0 L 15.703125 0 L 15.703125 -141.140625 L 35.6875 -141.140625 L 87.90625 -24.46875 L 140.125 -141.140625 Z M 159.90625 -141.140625 "/></g></g></g><g fill="#5b5a5d" fill-opacity="1"><g transform="translate(909.484545, 1151.578517)"><g><path d="M 8.765625 -56.296875 C 8.765625 -67.710938 11.078125 -77.738281 15.703125 -86.375 C 20.328125 -95.007812 26.679688 -101.707031 34.765625 -106.46875 C 42.859375 -111.226562 51.867188 -113.609375 61.796875 -113.609375 C 71.585938 -113.609375 80.085938 -111.5 87.296875 -107.28125 C 94.503906 -103.070312 99.875 -97.769531 103.40625 -91.375 L 103.40625 -111.78125 L 122.171875 -111.78125 L 122.171875 0 L 103.40625 0 L 103.40625 -20.8125 C 99.738281 -14.28125 94.265625 -8.875 86.984375 -4.59375 C 79.710938 -0.3125 71.25 1.828125 61.59375 1.828125 C 51.664062 1.828125 42.691406 -0.613281 34.671875 -5.5 C 26.648438 -10.394531 20.328125 -17.257812 15.703125 -26.09375 C 11.078125 -34.9375 8.765625 -45.003906 8.765625 -56.296875 Z M 103.40625 -56.09375 C 103.40625 -64.519531 101.707031 -71.859375 98.3125 -78.109375 C 94.914062 -84.367188 90.328125 -89.164062 84.546875 -92.5 C 78.765625 -95.832031 72.40625 -97.5 65.46875 -97.5 C 58.539062 -97.5 52.21875 -95.863281 46.5 -92.59375 C 40.789062 -89.332031 36.234375 -84.570312 32.828125 -78.3125 C 29.429688 -72.0625 27.734375 -64.722656 27.734375 -56.296875 C 27.734375 -47.734375 29.429688 -40.285156 32.828125 -33.953125 C 36.234375 -27.628906 40.789062 -22.800781 46.5 -19.46875 C 52.21875 -16.144531 58.539062 -14.484375 65.46875 -14.484375 C 72.40625 -14.484375 78.765625 -16.144531 84.546875 -19.46875 C 90.328125 -22.800781 94.914062 -27.628906 98.3125 -33.953125 C 101.707031 -40.285156 103.40625 -47.664062 103.40625 -56.09375 Z M 103.40625 -56.09375 "/></g></g></g><g fill="#5b5a5d" fill-opacity="1"><g transform="translate(1047.334778, 1151.578517)"><g><path d="M 34.265625 -93.625 C 37.523438 -100.007812 42.179688 -104.96875 48.234375 -108.5 C 54.285156 -112.039062 61.664062 -113.8125 70.375 -113.8125 L 70.375 -94.640625 L 65.46875 -94.640625 C 44.664062 -94.640625 34.265625 -83.351562 34.265625 -60.78125 L 34.265625 0 L 15.703125 0 L 15.703125 -111.78125 L 34.265625 -111.78125 Z M 34.265625 -93.625 "/></g></g></g><g fill="#5b5a5d" fill-opacity="1"><g transform="translate(1123.397142, 1151.578517)"><g><path d="M 78.125 0 L 34.265625 -49.359375 L 34.265625 0 L 15.703125 0 L 15.703125 -150.9375 L 34.265625 -150.9375 L 34.265625 -62.203125 L 77.296875 -111.78125 L 103.203125 -111.78125 L 50.578125 -56.09375 L 103.40625 0 Z M 78.125 0 "/></g></g></g><g fill="#5b5a5d" fill-opacity="1"><g transform="translate(1228.416212, 1151.578517)"><g><path d="M 117.6875 -60.171875 C 117.6875 -56.640625 117.484375 -52.898438 117.078125 -48.953125 L 27.734375 -48.953125 C 28.421875 -37.941406 32.195312 -29.34375 39.0625 -23.15625 C 45.925781 -16.96875 54.253906 -13.875 64.046875 -13.875 C 72.066406 -13.875 78.757812 -15.742188 84.125 -19.484375 C 89.5 -23.222656 93.273438 -28.21875 95.453125 -34.46875 L 115.453125 -34.46875 C 112.453125 -23.726562 106.460938 -14.992188 97.484375 -8.265625 C 88.515625 -1.535156 77.367188 1.828125 64.046875 1.828125 C 53.441406 1.828125 43.957031 -0.546875 35.59375 -5.296875 C 27.226562 -10.054688 20.664062 -16.820312 15.90625 -25.59375 C 11.144531 -34.363281 8.765625 -44.53125 8.765625 -56.09375 C 8.765625 -67.644531 11.078125 -77.769531 15.703125 -86.46875 C 20.328125 -95.175781 26.820312 -101.875 35.1875 -106.5625 C 43.550781 -111.257812 53.171875 -113.609375 64.046875 -113.609375 C 74.648438 -113.609375 84.03125 -111.296875 92.1875 -106.671875 C 100.351562 -102.046875 106.644531 -95.6875 111.0625 -87.59375 C 115.476562 -79.507812 117.6875 -70.367188 117.6875 -60.171875 Z M 98.515625 -64.046875 C 98.515625 -71.117188 96.953125 -77.203125 93.828125 -82.296875 C 90.703125 -87.398438 86.453125 -91.273438 81.078125 -93.921875 C 75.703125 -96.578125 69.753906 -97.90625 63.234375 -97.90625 C 53.847656 -97.90625 45.859375 -94.910156 39.265625 -88.921875 C 32.671875 -82.941406 28.894531 -74.648438 27.9375 -64.046875 Z M 98.515625 -64.046875 "/></g></g></g><g fill="#5b5a5d" fill-opacity="1"><g transform="translate(1354.846901, 1151.578517)"><g><path d="M 38.34375 -96.484375 L 38.34375 -30.59375 C 38.34375 -25.15625 39.5 -21.3125 41.8125 -19.0625 C 44.125 -16.820312 48.132812 -15.703125 53.84375 -15.703125 L 67.515625 -15.703125 L 67.515625 0 L 50.78125 0 C 40.445312 0 32.695312 -2.378906 27.53125 -7.140625 C 22.363281 -11.898438 19.78125 -19.71875 19.78125 -30.59375 L 19.78125 -96.484375 L 5.296875 -96.484375 L 5.296875 -111.78125 L 19.78125 -111.78125 L 19.78125 -139.921875 L 38.34375 -139.921875 L 38.34375 -111.78125 L 67.515625 -111.78125 L 67.515625 -96.484375 Z M 38.34375 -96.484375 "/></g></g></g><g fill="#5b5a5d" fill-opacity="1"><g transform="translate(1429.073949, 1151.578517)"><g><path d="M 25.296875 -129.921875 C 21.753906 -129.921875 18.757812 -131.144531 16.3125 -133.59375 C 13.863281 -136.039062 12.640625 -139.035156 12.640625 -142.578125 C 12.640625 -146.109375 13.863281 -149.097656 16.3125 -151.546875 C 18.757812 -153.992188 21.753906 -155.21875 25.296875 -155.21875 C 28.691406 -155.21875 31.578125 -153.992188 33.953125 -151.546875 C 36.335938 -149.097656 37.53125 -146.109375 37.53125 -142.578125 C 37.53125 -139.035156 36.335938 -136.039062 33.953125 -133.59375 C 31.578125 -131.144531 28.691406 -129.921875 25.296875 -129.921875 Z M 34.265625 -111.78125 L 34.265625 0 L 15.703125 0 L 15.703125 -111.78125 Z M 34.265625 -111.78125 "/></g></g></g><g fill="#5b5a5d" fill-opacity="1"><g transform="translate(1479.238383, 1151.578517)"><g><path d="M 70.171875 -113.8125 C 83.765625 -113.8125 94.773438 -109.695312 103.203125 -101.46875 C 111.640625 -93.25 115.859375 -81.382812 115.859375 -65.875 L 115.859375 0 L 97.5 0 L 97.5 -63.234375 C 97.5 -74.378906 94.707031 -82.910156 89.125 -88.828125 C 83.550781 -94.742188 75.941406 -97.703125 66.296875 -97.703125 C 56.503906 -97.703125 48.71875 -94.640625 42.9375 -88.515625 C 37.15625 -82.398438 34.265625 -73.492188 34.265625 -61.796875 L 34.265625 0 L 15.703125 0 L 15.703125 -111.78125 L 34.265625 -111.78125 L 34.265625 -95.859375 C 37.941406 -101.578125 42.941406 -106 49.265625 -109.125 C 55.585938 -112.25 62.554688 -113.8125 70.171875 -113.8125 Z M 70.171875 -113.8125 "/></g></g></g><g fill="#5b5a5d" fill-opacity="1"><g transform="translate(1609.747481, 1151.578517)"><g><path d="M 61.796875 -113.609375 C 71.453125 -113.609375 79.914062 -111.5 87.1875 -107.28125 C 94.46875 -103.070312 99.875 -97.769531 103.40625 -91.375 L 103.40625 -111.78125 L 122.171875 -111.78125 L 122.171875 2.453125 C 122.171875 12.648438 119.992188 21.722656 115.640625 29.671875 C 111.296875 37.628906 105.078125 43.851562 96.984375 48.34375 C 88.890625 52.832031 79.472656 55.078125 68.734375 55.078125 C 54.046875 55.078125 41.804688 51.609375 32.015625 44.671875 C 22.234375 37.734375 16.457031 28.28125 14.6875 16.3125 L 33.046875 16.3125 C 35.085938 23.113281 39.300781 28.585938 45.6875 32.734375 C 52.082031 36.878906 59.765625 38.953125 68.734375 38.953125 C 78.929688 38.953125 87.257812 35.753906 93.71875 29.359375 C 100.175781 22.972656 103.40625 14.003906 103.40625 2.453125 L 103.40625 -21.015625 C 99.738281 -14.484375 94.300781 -9.039062 87.09375 -4.6875 C 79.882812 -0.34375 71.453125 1.828125 61.796875 1.828125 C 51.867188 1.828125 42.859375 -0.613281 34.765625 -5.5 C 26.679688 -10.394531 20.328125 -17.257812 15.703125 -26.09375 C 11.078125 -34.9375 8.765625 -45.003906 8.765625 -56.296875 C 8.765625 -67.710938 11.078125 -77.738281 15.703125 -86.375 C 20.328125 -95.007812 26.679688 -101.707031 34.765625 -106.46875 C 42.859375 -111.226562 51.867188 -113.609375 61.796875 -113.609375 Z M 103.40625 -56.09375 C 103.40625 -64.519531 101.707031 -71.859375 98.3125 -78.109375 C 94.914062 -84.367188 90.328125 -89.164062 84.546875 -92.5 C 78.765625 -95.832031 72.40625 -97.5 65.46875 -97.5 C 58.539062 -97.5 52.21875 -95.863281 46.5 -92.59375 C 40.789062 -89.332031 36.234375 -84.570312 32.828125 -78.3125 C 29.429688 -72.0625 27.734375 -64.722656 27.734375 -56.296875 C 27.734375 -47.734375 29.429688 -40.285156 32.828125 -33.953125 C 36.234375 -27.628906 40.789062 -22.800781 46.5 -19.46875 C 52.21875 -16.144531 58.539062 -14.484375 65.46875 -14.484375 C 72.40625 -14.484375 78.765625 -16.144531 84.546875 -19.46875 C 90.328125 -22.800781 94.914062 -27.628906 98.3125 -33.953125 C 101.707031 -40.285156 103.40625 -47.664062 103.40625 -56.09375 Z M 103.40625 -56.09375 "/></g></g></g><g fill="#5b5a5d" fill-opacity="1"><g transform="translate(1747.597655, 1151.578517)"><g/></g></g><g fill="#5b5a5d" fill-opacity="1"><g transform="translate(1802.044449, 1151.578517)"><g><path d="M 124.828125 0 L 106.265625 -18.765625 C 99.328125 -11.554688 91.914062 -6.21875 84.03125 -2.75 C 76.144531 0.71875 67.238281 2.453125 57.3125 2.453125 C 47.519531 2.453125 38.847656 0.6875 31.296875 -2.84375 C 23.753906 -6.382812 17.910156 -11.414062 13.765625 -17.9375 C 9.617188 -24.46875 7.546875 -32.085938 7.546875 -40.796875 C 7.546875 -50.722656 10.363281 -59.457031 16 -67 C 21.644531 -74.550781 29.976562 -80.5 41 -84.84375 C 36.644531 -90.019531 33.515625 -94.78125 31.609375 -99.125 C 29.710938 -103.476562 28.765625 -108.238281 28.765625 -113.40625 C 28.765625 -119.382812 30.289062 -124.785156 33.34375 -129.609375 C 36.40625 -134.441406 40.789062 -138.21875 46.5 -140.9375 C 52.21875 -143.65625 58.816406 -145.015625 66.296875 -145.015625 C 73.628906 -145.015625 80.015625 -143.585938 85.453125 -140.734375 C 90.898438 -137.878906 94.984375 -133.898438 97.703125 -128.796875 C 100.421875 -123.703125 101.644531 -118.03125 101.375 -111.78125 L 82.8125 -111.78125 C 82.945312 -117.351562 81.378906 -121.734375 78.109375 -124.921875 C 74.847656 -128.117188 70.632812 -129.71875 65.46875 -129.71875 C 60.03125 -129.71875 55.644531 -128.1875 52.3125 -125.125 C 48.988281 -122.070312 47.328125 -118.164062 47.328125 -113.40625 C 47.328125 -109.320312 48.445312 -105.375 50.6875 -101.5625 C 52.925781 -97.757812 56.695312 -93.070312 62 -87.5 L 104.4375 -44.875 L 108.109375 -50.578125 L 121.96875 -73.84375 L 141.96875 -73.84375 L 125.234375 -44.875 C 122.921875 -40.789062 120.203125 -36.503906 117.078125 -32.015625 L 149.09375 0 Z M 57.3125 -13.46875 C 64.65625 -13.46875 71.285156 -14.894531 77.203125 -17.75 C 83.117188 -20.601562 88.726562 -25.019531 94.03125 -31 L 52.21875 -73.015625 C 34.8125 -66.359375 26.109375 -55.820312 26.109375 -41.40625 C 26.109375 -33.382812 29 -26.722656 34.78125 -21.421875 C 40.5625 -16.117188 48.070312 -13.46875 57.3125 -13.46875 Z M 57.3125 -13.46875 "/></g></g></g><g fill="#5b5a5d" fill-opacity="1"><g transform="translate(1952.741701, 1151.578517)"><g/></g></g><g fill="#5b5a5d" fill-opacity="1"><g transform="translate(2007.188494, 1151.578517)"><g><path d="M 34.265625 -142.171875 L 34.265625 0 L 15.703125 0 L 15.703125 -142.171875 Z M 34.265625 -142.171875 "/></g></g></g><g fill="#5b5a5d" fill-opacity="1"><g transform="translate(2057.352988, 1151.578517)"><g><path d="M 99.734375 -31.609375 L 37.734375 -31.609375 L 26.3125 0 L 6.734375 0 L 58.125 -141.34375 L 79.546875 -141.34375 L 130.75 0 L 111.15625 0 Z M 94.4375 -46.703125 L 68.734375 -118.5 L 43.03125 -46.703125 Z M 94.4375 -46.703125 "/></g></g></g><g fill="#5b5a5d" fill-opacity="1"><g transform="translate(2194.850879, 1151.578517)"><g/></g></g><g fill="#5b5a5d" fill-opacity="1"><g transform="translate(2249.297673, 1151.578517)"><g/></g></g><g fill="#5b5a5d" fill-opacity="1"><g transform="translate(2303.802891, 1151.578517)"><g><path d="M 34.265625 -91.171875 C 37.941406 -97.566406 43.414062 -102.90625 50.6875 -107.1875 C 57.957031 -111.46875 66.421875 -113.609375 76.078125 -113.609375 C 86.003906 -113.609375 95.015625 -111.226562 103.109375 -106.46875 C 111.203125 -101.707031 117.554688 -95.007812 122.171875 -86.375 C 126.796875 -77.738281 129.109375 -67.710938 129.109375 -56.296875 C 129.109375 -45.003906 126.796875 -34.9375 122.171875 -26.09375 C 117.554688 -17.257812 111.203125 -10.394531 103.109375 -5.5 C 95.015625 -0.613281 86.003906 1.828125 76.078125 1.828125 C 66.554688 1.828125 58.160156 -0.3125 50.890625 -4.59375 C 43.617188 -8.875 38.078125 -14.207031 34.265625 -20.59375 L 34.265625 53.03125 L 15.703125 53.03125 L 15.703125 -111.78125 L 34.265625 -111.78125 Z M 110.140625 -56.296875 C 110.140625 -64.722656 108.4375 -72.0625 105.03125 -78.3125 C 101.632812 -84.570312 97.046875 -89.332031 91.265625 -92.59375 C 85.492188 -95.863281 79.140625 -97.5 72.203125 -97.5 C 65.398438 -97.5 59.109375 -95.832031 53.328125 -92.5 C 47.554688 -89.164062 42.9375 -84.335938 39.46875 -78.015625 C 36 -71.691406 34.265625 -64.382812 34.265625 -56.09375 C 34.265625 -47.664062 36 -40.285156 39.46875 -33.953125 C 42.9375 -27.628906 47.554688 -22.800781 53.328125 -19.46875 C 59.109375 -16.144531 65.398438 -14.484375 72.203125 -14.484375 C 79.140625 -14.484375 85.492188 -16.144531 91.265625 -19.46875 C 97.046875 -22.800781 101.632812 -27.628906 105.03125 -33.953125 C 108.4375 -40.285156 110.140625 -47.734375 110.140625 -56.296875 Z M 110.140625 -56.296875 "/></g></g></g><g fill="#5b5a5d" fill-opacity="1"><g transform="translate(2441.653124, 1151.578517)"><g><path d="M 8.765625 -56.296875 C 8.765625 -67.710938 11.078125 -77.738281 15.703125 -86.375 C 20.328125 -95.007812 26.679688 -101.707031 34.765625 -106.46875 C 42.859375 -111.226562 51.867188 -113.609375 61.796875 -113.609375 C 71.585938 -113.609375 80.085938 -111.5 87.296875 -107.28125 C 94.503906 -103.070312 99.875 -97.769531 103.40625 -91.375 L 103.40625 -111.78125 L 122.171875 -111.78125 L 122.171875 0 L 103.40625 0 L 103.40625 -20.8125 C 99.738281 -14.28125 94.265625 -8.875 86.984375 -4.59375 C 79.710938 -0.3125 71.25 1.828125 61.59375 1.828125 C 51.664062 1.828125 42.691406 -0.613281 34.671875 -5.5 C 26.648438 -10.394531 20.328125 -17.257812 15.703125 -26.09375 C 11.078125 -34.9375 8.765625 -45.003906 8.765625 -56.296875 Z M 103.40625 -56.09375 C 103.40625 -64.519531 101.707031 -71.859375 98.3125 -78.109375 C 94.914062 -84.367188 90.328125 -89.164062 84.546875 -92.5 C 78.765625 -95.832031 72.40625 -97.5 65.46875 -97.5 C 58.539062 -97.5 52.21875 -95.863281 46.5 -92.59375 C 40.789062 -89.332031 36.234375 -84.570312 32.828125 -78.3125 C 29.429688 -72.0625 27.734375 -64.722656 27.734375 -56.296875 C 27.734375 -47.734375 29.429688 -40.285156 32.828125 -33.953125 C 36.234375 -27.628906 40.789062 -22.800781 46.5 -19.46875 C 52.21875 -16.144531 58.539062 -14.484375 65.46875 -14.484375 C 72.40625 -14.484375 78.765625 -16.144531 84.546875 -19.46875 C 90.328125 -22.800781 94.914062 -27.628906 98.3125 -33.953125 C 101.707031 -40.285156 103.40625 -47.664062 103.40625 -56.09375 Z M 103.40625 -56.09375 "/></g></g></g><g fill="#5b5a5d" fill-opacity="1"><g transform="translate(2579.503357, 1151.578517)"><g><path d="M 34.265625 -93.625 C 37.523438 -100.007812 42.179688 -104.96875 48.234375 -108.5 C 54.285156 -112.039062 61.664062 -113.8125 70.375 -113.8125 L 70.375 -94.640625 L 65.46875 -94.640625 C 44.664062 -94.640625 34.265625 -83.351562 34.265625 -60.78125 L 34.265625 0 L 15.703125 0 L 15.703125 -111.78125 L 34.265625 -111.78125 Z M 34.265625 -93.625 "/></g></g></g><g fill="#5b5a5d" fill-opacity="1"><g transform="translate(2655.565722, 1151.578517)"><g><path d="M 8.765625 -56.296875 C 8.765625 -67.710938 11.078125 -77.738281 15.703125 -86.375 C 20.328125 -95.007812 26.679688 -101.707031 34.765625 -106.46875 C 42.859375 -111.226562 51.867188 -113.609375 61.796875 -113.609375 C 71.585938 -113.609375 80.085938 -111.5 87.296875 -107.28125 C 94.503906 -103.070312 99.875 -97.769531 103.40625 -91.375 L 103.40625 -111.78125 L 122.171875 -111.78125 L 122.171875 0 L 103.40625 0 L 103.40625 -20.8125 C 99.738281 -14.28125 94.265625 -8.875 86.984375 -4.59375 C 79.710938 -0.3125 71.25 1.828125 61.59375 1.828125 C 51.664062 1.828125 42.691406 -0.613281 34.671875 -5.5 C 26.648438 -10.394531 20.328125 -17.257812 15.703125 -26.09375 C 11.078125 -34.9375 8.765625 -45.003906 8.765625 -56.296875 Z M 103.40625 -56.09375 C 103.40625 -64.519531 101.707031 -71.859375 98.3125 -78.109375 C 94.914062 -84.367188 90.328125 -89.164062 84.546875 -92.5 C 78.765625 -95.832031 72.40625 -97.5 65.46875 -97.5 C 58.539062 -97.5 52.21875 -95.863281 46.5 -92.59375 C 40.789062 -89.332031 36.234375 -84.570312 32.828125 -78.3125 C 29.429688 -72.0625 27.734375 -64.722656 27.734375 -56.296875 C 27.734375 -47.734375 29.429688 -40.285156 32.828125 -33.953125 C 36.234375 -27.628906 40.789062 -22.800781 46.5 -19.46875 C 52.21875 -16.144531 58.539062 -14.484375 65.46875 -14.484375 C 72.40625 -14.484375 78.765625 -16.144531 84.546875 -19.46875 C 90.328125 -22.800781 94.914062 -27.628906 98.3125 -33.953125 C 101.707031 -40.285156 103.40625 -47.664062 103.40625 -56.09375 Z M 103.40625 -56.09375 "/></g></g></g><g fill="#5b5a5d" fill-opacity="1"><g transform="translate(2793.415955, 1151.578517)"><g/></g></g><g fill="#5b5a5d" fill-opacity="1"><g transform="translate(2847.862749, 1151.578517)"><g><path d="M 70.171875 -113.8125 C 83.765625 -113.8125 94.773438 -109.695312 103.203125 -101.46875 C 111.640625 -93.25 115.859375 -81.382812 115.859375 -65.875 L 115.859375 0 L 97.5 0 L 97.5 -63.234375 C 97.5 -74.378906 94.707031 -82.910156 89.125 -88.828125 C 83.550781 -94.742188 75.941406 -97.703125 66.296875 -97.703125 C 56.503906 -97.703125 48.71875 -94.640625 42.9375 -88.515625 C 37.15625 -82.398438 34.265625 -73.492188 34.265625 -61.796875 L 34.265625 0 L 15.703125 0 L 15.703125 -111.78125 L 34.265625 -111.78125 L 34.265625 -95.859375 C 37.941406 -101.578125 42.941406 -106 49.265625 -109.125 C 55.585938 -112.25 62.554688 -113.8125 70.171875 -113.8125 Z M 70.171875 -113.8125 "/></g></g></g><g fill="#5b5a5d" fill-opacity="1"><g transform="translate(2978.371846, 1151.578517)"><g><path d="M 117.6875 -60.171875 C 117.6875 -56.640625 117.484375 -52.898438 117.078125 -48.953125 L 27.734375 -48.953125 C 28.421875 -37.941406 32.195312 -29.34375 39.0625 -23.15625 C 45.925781 -16.96875 54.253906 -13.875 64.046875 -13.875 C 72.066406 -13.875 78.757812 -15.742188 84.125 -19.484375 C 89.5 -23.222656 93.273438 -28.21875 95.453125 -34.46875 L 115.453125 -34.46875 C 112.453125 -23.726562 106.460938 -14.992188 97.484375 -8.265625 C 88.515625 -1.535156 77.367188 1.828125 64.046875 1.828125 C 53.441406 1.828125 43.957031 -0.546875 35.59375 -5.296875 C 27.226562 -10.054688 20.664062 -16.820312 15.90625 -25.59375 C 11.144531 -34.363281 8.765625 -44.53125 8.765625 -56.09375 C 8.765625 -67.644531 11.078125 -77.769531 15.703125 -86.46875 C 20.328125 -95.175781 26.820312 -101.875 35.1875 -106.5625 C 43.550781 -111.257812 53.171875 -113.609375 64.046875 -113.609375 C 74.648438 -113.609375 84.03125 -111.296875 92.1875 -106.671875 C 100.351562 -102.046875 106.644531 -95.6875 111.0625 -87.59375 C 115.476562 -79.507812 117.6875 -70.367188 117.6875 -60.171875 Z M 98.515625 -64.046875 C 98.515625 -71.117188 96.953125 -77.203125 93.828125 -82.296875 C 90.703125 -87.398438 86.453125 -91.273438 81.078125 -93.921875 C 75.703125 -96.578125 69.753906 -97.90625 63.234375 -97.90625 C 53.847656 -97.90625 45.859375 -94.910156 39.265625 -88.921875 C 32.671875 -82.941406 28.894531 -74.648438 27.9375 -64.046875 Z M 98.515625 -64.046875 "/></g></g></g><g fill="#5b5a5d" fill-opacity="1"><g transform="translate(3104.802535, 1151.578517)"><g><path d="M 61.796875 -113.609375 C 71.453125 -113.609375 79.914062 -111.5 87.1875 -107.28125 C 94.46875 -103.070312 99.875 -97.769531 103.40625 -91.375 L 103.40625 -111.78125 L 122.171875 -111.78125 L 122.171875 2.453125 C 122.171875 12.648438 119.992188 21.722656 115.640625 29.671875 C 111.296875 37.628906 105.078125 43.851562 96.984375 48.34375 C 88.890625 52.832031 79.472656 55.078125 68.734375 55.078125 C 54.046875 55.078125 41.804688 51.609375 32.015625 44.671875 C 22.234375 37.734375 16.457031 28.28125 14.6875 16.3125 L 33.046875 16.3125 C 35.085938 23.113281 39.300781 28.585938 45.6875 32.734375 C 52.082031 36.878906 59.765625 38.953125 68.734375 38.953125 C 78.929688 38.953125 87.257812 35.753906 93.71875 29.359375 C 100.175781 22.972656 103.40625 14.003906 103.40625 2.453125 L 103.40625 -21.015625 C 99.738281 -14.484375 94.300781 -9.039062 87.09375 -4.6875 C 79.882812 -0.34375 71.453125 1.828125 61.796875 1.828125 C 51.867188 1.828125 42.859375 -0.613281 34.765625 -5.5 C 26.679688 -10.394531 20.328125 -17.257812 15.703125 -26.09375 C 11.078125 -34.9375 8.765625 -45.003906 8.765625 -56.296875 C 8.765625 -67.710938 11.078125 -77.738281 15.703125 -86.375 C 20.328125 -95.007812 26.679688 -101.707031 34.765625 -106.46875 C 42.859375 -111.226562 51.867188 -113.609375 61.796875 -113.609375 Z M 103.40625 -56.09375 C 103.40625 -64.519531 101.707031 -71.859375 98.3125 -78.109375 C 94.914062 -84.367188 90.328125 -89.164062 84.546875 -92.5 C 78.765625 -95.832031 72.40625 -97.5 65.46875 -97.5 C 58.539062 -97.5 52.21875 -95.863281 46.5 -92.59375 C 40.789062 -89.332031 36.234375 -84.570312 32.828125 -78.3125 C 29.429688 -72.0625 27.734375 -64.722656 27.734375 -56.296875 C 27.734375 -47.734375 29.429688 -40.285156 32.828125 -33.953125 C 36.234375 -27.628906 40.789062 -22.800781 46.5 -19.46875 C 52.21875 -16.144531 58.539062 -14.484375 65.46875 -14.484375 C 72.40625 -14.484375 78.765625 -16.144531 84.546875 -19.46875 C 90.328125 -22.800781 94.914062 -27.628906 98.3125 -33.953125 C 101.707031 -40.285156 103.40625 -47.664062 103.40625 -56.09375 Z M 103.40625 -56.09375 "/></g></g></g><g fill="#5b5a5d" fill-opacity="1"><g transform="translate(3242.652768, 1151.578517)"><g><path d="M 64.453125 1.828125 C 53.984375 1.828125 44.5 -0.546875 36 -5.296875 C 27.5 -10.054688 20.832031 -16.820312 16 -25.59375 C 11.175781 -34.363281 8.765625 -44.53125 8.765625 -56.09375 C 8.765625 -67.507812 11.242188 -77.601562 16.203125 -86.375 C 21.171875 -95.144531 27.9375 -101.875 36.5 -106.5625 C 45.070312 -111.257812 54.660156 -113.609375 65.265625 -113.609375 C 75.867188 -113.609375 85.453125 -111.257812 94.015625 -106.5625 C 102.585938 -101.875 109.351562 -95.175781 114.3125 -86.46875 C 119.28125 -77.769531 121.765625 -67.644531 121.765625 -56.09375 C 121.765625 -44.53125 119.210938 -34.363281 114.109375 -25.59375 C 109.015625 -16.820312 102.113281 -10.054688 93.40625 -5.296875 C 84.707031 -0.546875 75.054688 1.828125 64.453125 1.828125 Z M 64.453125 -14.484375 C 71.117188 -14.484375 77.375 -16.046875 83.21875 -19.171875 C 89.0625 -22.296875 93.785156 -26.984375 97.390625 -33.234375 C 100.992188 -39.492188 102.796875 -47.113281 102.796875 -56.09375 C 102.796875 -65.0625 101.023438 -72.671875 97.484375 -78.921875 C 93.953125 -85.179688 89.332031 -89.84375 83.625 -92.90625 C 77.914062 -95.96875 71.726562 -97.5 65.0625 -97.5 C 58.269531 -97.5 52.050781 -95.96875 46.40625 -92.90625 C 40.757812 -89.84375 36.234375 -85.179688 32.828125 -78.921875 C 29.429688 -72.671875 27.734375 -65.0625 27.734375 -56.09375 C 27.734375 -46.976562 29.398438 -39.289062 32.734375 -33.03125 C 36.066406 -26.78125 40.519531 -22.125 46.09375 -19.0625 C 51.664062 -16.007812 57.785156 -14.484375 64.453125 -14.484375 Z M 64.453125 -14.484375 "/></g></g></g><g fill="#5b5a5d" fill-opacity="1"><g transform="translate(3373.161924, 1151.578517)"><g><path d="M 8.765625 -56.09375 C 8.765625 -67.644531 11.078125 -77.738281 15.703125 -86.375 C 20.328125 -95.007812 26.753906 -101.707031 34.984375 -106.46875 C 43.210938 -111.226562 52.628906 -113.609375 63.234375 -113.609375 C 76.960938 -113.609375 88.28125 -110.273438 97.1875 -103.609375 C 106.09375 -96.953125 111.972656 -87.707031 114.828125 -75.875 L 94.84375 -75.875 C 92.9375 -82.675781 89.226562 -88.046875 83.71875 -91.984375 C 78.21875 -95.929688 71.390625 -97.90625 63.234375 -97.90625 C 52.628906 -97.90625 44.0625 -94.265625 37.53125 -86.984375 C 31 -79.710938 27.734375 -69.414062 27.734375 -56.09375 C 27.734375 -42.632812 31 -32.234375 37.53125 -24.890625 C 44.0625 -17.546875 52.628906 -13.875 63.234375 -13.875 C 71.390625 -13.875 78.1875 -15.773438 83.625 -19.578125 C 89.0625 -23.390625 92.800781 -28.832031 94.84375 -35.90625 L 114.828125 -35.90625 C 111.835938 -24.476562 105.851562 -15.332031 96.875 -8.46875 C 87.90625 -1.601562 76.691406 1.828125 63.234375 1.828125 C 52.628906 1.828125 43.210938 -0.546875 34.984375 -5.296875 C 26.753906 -10.054688 20.328125 -16.785156 15.703125 -25.484375 C 11.078125 -34.191406 8.765625 -44.394531 8.765625 -56.09375 Z M 8.765625 -56.09375 "/></g></g></g><g fill="#5b5a5d" fill-opacity="1"><g transform="translate(3496.941557, 1151.578517)"><g><path d="M 25.296875 -129.921875 C 21.753906 -129.921875 18.757812 -131.144531 16.3125 -133.59375 C 13.863281 -136.039062 12.640625 -139.035156 12.640625 -142.578125 C 12.640625 -146.109375 13.863281 -149.097656 16.3125 -151.546875 C 18.757812 -153.992188 21.753906 -155.21875 25.296875 -155.21875 C 28.691406 -155.21875 31.578125 -153.992188 33.953125 -151.546875 C 36.335938 -149.097656 37.53125 -146.109375 37.53125 -142.578125 C 37.53125 -139.035156 36.335938 -136.039062 33.953125 -133.59375 C 31.578125 -131.144531 28.691406 -129.921875 25.296875 -129.921875 Z M 34.265625 -111.78125 L 34.265625 0 L 15.703125 0 L 15.703125 -111.78125 Z M 34.265625 -111.78125 "/></g></g></g><g fill="#5b5a5d" fill-opacity="1"><g transform="translate(3547.106051, 1151.578517)"><g><path d="M 64.453125 1.828125 C 53.984375 1.828125 44.5 -0.546875 36 -5.296875 C 27.5 -10.054688 20.832031 -16.820312 16 -25.59375 C 11.175781 -34.363281 8.765625 -44.53125 8.765625 -56.09375 C 8.765625 -67.507812 11.242188 -77.601562 16.203125 -86.375 C 21.171875 -95.144531 27.9375 -101.875 36.5 -106.5625 C 45.070312 -111.257812 54.660156 -113.609375 65.265625 -113.609375 C 75.867188 -113.609375 85.453125 -111.257812 94.015625 -106.5625 C 102.585938 -101.875 109.351562 -95.175781 114.3125 -86.46875 C 119.28125 -77.769531 121.765625 -67.644531 121.765625 -56.09375 C 121.765625 -44.53125 119.210938 -34.363281 114.109375 -25.59375 C 109.015625 -16.820312 102.113281 -10.054688 93.40625 -5.296875 C 84.707031 -0.546875 75.054688 1.828125 64.453125 1.828125 Z M 64.453125 -14.484375 C 71.117188 -14.484375 77.375 -16.046875 83.21875 -19.171875 C 89.0625 -22.296875 93.785156 -26.984375 97.390625 -33.234375 C 100.992188 -39.492188 102.796875 -47.113281 102.796875 -56.09375 C 102.796875 -65.0625 101.023438 -72.671875 97.484375 -78.921875 C 93.953125 -85.179688 89.332031 -89.84375 83.625 -92.90625 C 77.914062 -95.96875 71.726562 -97.5 65.0625 -97.5 C 58.269531 -97.5 52.050781 -95.96875 46.40625 -92.90625 C 40.757812 -89.84375 36.234375 -85.179688 32.828125 -78.921875 C 29.429688 -72.671875 27.734375 -65.0625 27.734375 -56.09375 C 27.734375 -46.976562 29.398438 -39.289062 32.734375 -33.03125 C 36.066406 -26.78125 40.519531 -22.125 46.09375 -19.0625 C 51.664062 -16.007812 57.785156 -14.484375 64.453125 -14.484375 Z M 64.453125 -14.484375 "/></g></g></g><g fill="#5b5a5d" fill-opacity="1"><g transform="translate(3677.615148, 1151.578517)"><g><path d="M 55.28125 1.828125 C 46.707031 1.828125 39.019531 0.367188 32.21875 -2.546875 C 25.425781 -5.472656 20.054688 -9.550781 16.109375 -14.78125 C 12.171875 -20.019531 10 -26.039062 9.59375 -32.84375 L 28.765625 -32.84375 C 29.304688 -27.257812 31.921875 -22.703125 36.609375 -19.171875 C 41.304688 -15.640625 47.460938 -13.875 55.078125 -13.875 C 62.140625 -13.875 67.710938 -15.4375 71.796875 -18.5625 C 75.878906 -21.6875 77.921875 -25.628906 77.921875 -30.390625 C 77.921875 -35.285156 75.742188 -38.921875 71.390625 -41.296875 C 67.035156 -43.679688 60.304688 -46.03125 51.203125 -48.34375 C 42.898438 -50.519531 36.128906 -52.726562 30.890625 -54.96875 C 25.660156 -57.207031 21.175781 -60.535156 17.4375 -64.953125 C 13.695312 -69.378906 11.828125 -75.195312 11.828125 -82.40625 C 11.828125 -88.113281 13.523438 -93.347656 16.921875 -98.109375 C 20.328125 -102.867188 25.15625 -106.640625 31.40625 -109.421875 C 37.664062 -112.210938 44.804688 -113.609375 52.828125 -113.609375 C 65.203125 -113.609375 75.195312 -110.476562 82.8125 -104.21875 C 90.425781 -97.96875 94.503906 -89.40625 95.046875 -78.53125 L 76.484375 -78.53125 C 76.078125 -84.375 73.734375 -89.0625 69.453125 -92.59375 C 65.171875 -96.132812 59.425781 -97.90625 52.21875 -97.90625 C 45.550781 -97.90625 40.242188 -96.476562 36.296875 -93.625 C 32.359375 -90.769531 30.390625 -87.03125 30.390625 -82.40625 C 30.390625 -78.726562 31.578125 -75.695312 33.953125 -73.3125 C 36.335938 -70.9375 39.332031 -69.035156 42.9375 -67.609375 C 46.539062 -66.179688 51.535156 -64.585938 57.921875 -62.828125 C 65.953125 -60.648438 72.484375 -58.503906 77.515625 -56.390625 C 82.546875 -54.285156 86.859375 -51.125 90.453125 -46.90625 C 94.054688 -42.695312 95.925781 -37.191406 96.0625 -30.390625 C 96.0625 -24.273438 94.363281 -18.769531 90.96875 -13.875 C 87.570312 -8.976562 82.78125 -5.132812 76.59375 -2.34375 C 70.40625 0.4375 63.300781 1.828125 55.28125 1.828125 Z M 55.28125 1.828125 "/></g></g></g></g></g></svg>